<svg width="80" height="80" viewBox="0 0 80 80" fill="none" xmlns="http://www.w3.org/2000/svg">
<rect width="80" height="80" rx="14" fill="#EEEAFB"/>
<path d="M45.6644 25H34.3356C29.1811 25 25 29.1811 25 34.3356V45.6644C25 50.8189 29.1811 55 34.3356 55H37.9708C37.9708 52.1985 40.2391 49.9302 43.0406 49.9302C45.8421 49.9302 47.9285 52.0292 48.0935 54.6784C52.0715 53.6077 55 49.9767 55 45.6644V34.3356C55 29.1811 50.8189 25 45.6644 25ZM36.6547 45.3682C33.1295 45.3682 30.2687 42.5116 30.2687 38.9822C30.2687 35.4528 33.1253 32.5963 36.6547 32.5963C40.1841 32.5963 43.0406 35.4528 43.0406 38.9822C43.0406 42.5116 40.1841 45.3682 36.6547 45.3682ZM48.4659 34.2552C47.1752 34.2552 46.1257 33.2057 46.1257 31.9149C46.1257 30.6242 47.1752 29.5747 48.4659 29.5747C49.7567 29.5747 50.8062 30.6242 50.8062 31.9149C50.8062 33.2057 49.7567 34.2552 48.4659 34.2552Z" fill="white"/>
</svg>
