<svg width="26" height="18" viewBox="0 0 26 18" fill="none" xmlns="http://www.w3.org/2000/svg">
<path d="M6.58327 13.689C7.54953 13.689 8.4896 13.7986 9.40349 14.0177C10.3174 14.2369 11.2245 14.5805 12.125 15.0487V3.57943C11.3053 3.04547 10.4183 2.64499 9.46407 2.378C8.50979 2.11101 7.54953 1.97751 6.58327 1.97751C5.88327 1.97751 5.22927 2.03247 4.62126 2.14239C4.01325 2.25233 3.38842 2.43219 2.74675 2.68197C2.65699 2.7119 2.59342 2.75491 2.55603 2.81101C2.51864 2.8671 2.49994 2.9288 2.49994 2.9961V14.0301C2.49994 14.1348 2.53733 14.2114 2.61212 14.26C2.68692 14.3086 2.7692 14.3142 2.85895 14.2769C3.41236 14.0884 3.99643 13.9433 4.61117 13.8416C5.22591 13.7399 5.88327 13.689 6.58327 13.689ZM13.8749 15.0487C14.7753 14.5805 15.6825 14.2369 16.5964 14.0177C17.5103 13.7986 18.4504 13.689 19.4166 13.689C20.1166 13.689 20.774 13.7399 21.3887 13.8416C22.0034 13.9433 22.5875 14.0884 23.1409 14.2769C23.2307 14.3142 23.313 14.3086 23.3878 14.26C23.4625 14.2114 23.4999 14.1348 23.4999 14.0301V2.9961C23.4999 2.9288 23.4812 2.86897 23.4439 2.81661C23.4065 2.76424 23.3429 2.71936 23.2531 2.68197C22.6115 2.43219 21.9866 2.25233 21.3786 2.14239C20.7706 2.03247 20.1166 1.97751 19.4166 1.97751C18.4504 1.97751 17.4901 2.11101 16.5358 2.378C15.5815 2.64499 14.6946 3.04547 13.8749 3.57943V15.0487ZM12.9999 17.6153C12.0591 16.9213 11.0443 16.385 9.95538 16.0066C8.86649 15.6282 7.74246 15.439 6.58327 15.439C5.87132 15.439 5.17208 15.5179 4.48555 15.6757C3.79901 15.8335 3.13715 16.0657 2.49997 16.3723C2.08417 16.5638 1.68855 16.5335 1.31312 16.2815C0.937707 16.0294 0.75 15.6723 0.75 15.2101V2.54291C0.75 2.29163 0.814682 2.05568 0.944046 1.83506C1.07343 1.61444 1.26003 1.45552 1.50384 1.3583C2.29358 0.973905 3.11659 0.689345 3.97289 0.504622C4.82918 0.3199 5.69931 0.227539 6.58327 0.227539C7.71854 0.227539 8.82762 0.382725 9.91052 0.693098C10.9934 1.00345 12.0232 1.46151 12.9999 2.06728C13.9767 1.46151 15.0065 1.00345 16.0894 0.693098C17.1723 0.382725 18.2813 0.227539 19.4166 0.227539C20.3006 0.227539 21.1707 0.3199 22.027 0.504622C22.8833 0.689345 23.7063 0.973905 24.496 1.3583C24.7399 1.45552 24.9265 1.61444 25.0558 1.83506C25.1852 2.05568 25.2499 2.29163 25.2499 2.54291V15.2101C25.2499 15.6723 25.0547 16.0257 24.6643 16.2702C24.2739 16.5148 23.8634 16.5413 23.4326 16.3499C22.8029 16.0507 22.1504 15.8242 21.4751 15.6701C20.7998 15.516 20.1136 15.439 19.4166 15.439C18.2574 15.439 17.1334 15.6282 16.0445 16.0066C14.9556 16.385 13.9408 16.9213 12.9999 17.6153Z" fill="#2A7CF8"/>
</svg>
