<svg width="437" height="113" viewBox="0 0 437 113" fill="none" xmlns="http://www.w3.org/2000/svg">
<path d="M168.937 42.2093C164.674 39.7996 159.792 38.6051 154.272 38.6051C148.753 38.6051 143.871 39.7996 139.608 42.2093C137.363 43.4656 135.406 45.0102 133.676 46.802V3.71666C133.676 2.74868 132.893 1.96606 131.925 1.96606H115.737C114.768 1.96606 113.986 2.74868 113.986 3.71666V108.917C113.986 109.885 114.768 110.668 115.737 110.668H131.925C132.893 110.668 133.676 109.885 133.676 108.917V71.0839C133.676 68.1799 134.294 65.6261 135.55 63.4224C136.807 61.2187 138.537 59.5093 140.741 58.3148C142.944 57.1202 145.457 56.5024 148.258 56.5024C152.563 56.5024 156.085 57.8617 158.783 60.5597C161.481 63.2576 162.841 66.7794 162.841 71.0839V108.917C162.841 109.885 163.623 110.668 164.591 110.668H180.78C181.748 110.668 182.531 109.885 182.531 108.917V66.7177C182.531 61.1981 181.336 56.3376 178.926 52.1362C176.517 47.9347 173.18 44.6189 168.937 42.2093Z" fill="#4D3833"/>
<path d="M356.427 54.0514C353.358 48.5936 349.156 44.2686 343.801 41.1175C338.446 37.9665 332.246 36.3806 325.244 36.3806C318.241 36.3806 311.65 38.0694 305.842 41.4265C300.033 44.7835 295.44 49.2939 292.083 54.9576C288.726 60.6213 287.037 67.0676 287.037 74.2759C287.037 81.4843 288.767 88.116 292.227 93.8209C295.688 99.5258 300.363 104.016 306.295 107.27C312.206 110.524 318.982 112.151 326.582 112.151C332.494 112.151 337.993 111.1 343.039 109C347.57 107.105 351.483 104.427 354.779 100.926C355.417 100.247 355.376 99.1757 354.717 98.5166L346.272 90.0725C344.913 88.7132 343.822 88.6721 343.162 89.3311C341.226 91.2465 339.002 92.7087 336.489 93.7591C333.482 95.0154 330.125 95.6333 326.418 95.6333C322.298 95.6333 318.694 94.7477 315.584 92.9971C312.474 91.2465 310.105 88.7338 308.437 85.4798C308.148 84.9031 307.881 84.3059 307.654 83.6674C307.222 82.5347 308.087 81.3195 309.302 81.3195L358.527 81.196C359.351 81.196 360.072 80.6193 360.237 79.8161C360.484 78.6627 360.649 77.5918 360.752 76.6032C360.896 75.2439 360.978 73.9258 360.978 72.6283C360.978 65.7083 359.454 59.5297 356.385 54.0514H356.427ZM339.743 66.4909L309.343 66.5733C308.128 66.5733 307.263 65.3582 307.675 64.2254C307.86 63.7312 308.066 63.2369 308.313 62.7632C309.858 59.6121 312.103 57.1407 315.007 55.3901C317.911 53.6395 321.33 52.7539 325.223 52.7539C328.93 52.7539 332.061 53.5365 334.615 55.0811C337.169 56.6464 339.126 58.8707 340.485 61.7746C340.835 62.516 341.144 63.3193 341.412 64.1637C341.782 65.2964 340.938 66.4703 339.743 66.4703V66.4909Z" fill="#4D3833"/>
<path d="M268.809 54.0514C265.741 48.5936 261.539 44.2686 256.184 41.1175C250.829 37.9665 244.629 36.3806 237.626 36.3806C230.624 36.3806 224.033 38.0694 218.224 41.4265C212.416 44.7835 207.823 49.2939 204.466 54.9576C201.109 60.6213 199.42 67.0676 199.42 74.2759C199.42 81.4843 201.15 88.116 204.61 93.8209C208.07 99.5258 212.746 104.016 218.678 107.27C224.589 110.524 231.365 112.151 238.965 112.151C244.876 112.151 250.376 111.1 255.422 109C259.953 107.105 263.866 104.427 267.162 100.926C267.8 100.247 267.759 99.1757 267.1 98.5166L258.655 90.0725C257.296 88.7132 256.204 88.6721 255.545 89.3311C253.609 91.2465 251.385 92.7087 248.872 93.7591C245.865 95.0154 242.508 95.6333 238.8 95.6333C234.681 95.6333 231.077 94.7477 227.967 92.9971C224.857 91.2465 222.488 88.7338 220.82 85.4798C220.531 84.9031 220.264 84.3059 220.037 83.6674C219.604 82.5347 220.469 81.3195 221.685 81.3195L270.91 81.196C271.734 81.196 272.455 80.6193 272.62 79.8161C272.867 78.6627 273.032 77.5918 273.135 76.6032C273.279 75.2439 273.361 73.9258 273.361 72.6283C273.361 65.7083 271.837 59.5297 268.768 54.0514H268.809ZM252.126 66.4909L221.726 66.5733C220.511 66.5733 219.646 65.3582 220.058 64.2254C220.243 63.7312 220.449 63.2369 220.696 62.7632C222.241 59.6121 224.486 57.1407 227.39 55.3901C230.294 53.6395 233.713 52.7539 237.606 52.7539C241.313 52.7539 244.444 53.5365 246.998 55.0811C249.552 56.6464 251.508 58.8707 252.868 61.7746C253.218 62.516 253.527 63.3193 253.795 64.1637C254.165 65.2964 253.321 66.4703 252.126 66.4703V66.4909Z" fill="#4D3833"/>
<path d="M436.258 45.0306C438.03 41.6118 436.588 38.0488 432.53 38.0488H378.547C377.579 38.0488 376.796 38.8314 376.796 39.7994V53.4335C376.796 54.4015 377.579 55.1841 378.547 55.1841H404.519C405.961 55.1841 406.785 56.8523 405.899 58.0057L372.451 103.686C370.803 106.858 371.956 110.112 375.375 110.565C375.519 110.606 375.664 110.647 375.828 110.647H433.684C434.652 110.647 435.435 109.865 435.435 108.897V95.2625C435.435 94.2946 434.652 93.5119 433.684 93.5119H405.899C404.458 93.5119 403.634 91.8437 404.519 90.6904L436.258 45.01V45.0306Z" fill="#4D3833"/>
<path d="M57.0984 0.0505371C72.8958 0.0505371 84.3269 5.05519 94.9752 14.6114C96.3758 15.8677 96.3758 17.7419 95.14 18.9982L85.5832 28.8633C84.4916 30.1197 82.9263 30.1197 81.6699 28.8633C75.0997 23.0761 66.3256 19.6367 57.5721 19.6367C37.5317 19.6367 22.6817 36.3806 22.6817 56.0903C22.6817 75.8 37.6965 92.235 57.7368 92.235C67.1288 92.235 75.0997 88.6309 81.6699 83.3173C82.9263 82.2257 84.6358 82.3699 85.5832 83.3173L95.2842 93.3266C96.5406 94.4182 96.2316 96.4571 95.1194 97.5486C84.471 107.867 71.0216 112.727 57.0984 112.727C25.7918 112.727 0.602295 87.8483 0.602295 56.5434C0.602295 25.2386 25.7918 0.0505371 57.0984 0.0505371Z" fill="#4D3833"/>
</svg>