<svg width="146" height="146" viewBox="0 0 146 146" fill="none" xmlns="http://www.w3.org/2000/svg">
<path d="M100.567 0H45.4332C20.3481 0 0 20.3481 0 45.4332V100.567C0 125.652 20.3481 146 45.4332 146H63.1246C63.1246 132.366 74.1636 121.327 87.7977 121.327C101.432 121.327 111.585 131.542 112.388 144.435C131.748 139.224 146 121.553 146 100.567V45.4332C146 20.3481 125.652 0 100.567 0ZM56.7194 99.1251C39.5635 99.1251 25.6411 85.2233 25.6411 68.0468C25.6411 50.8704 39.543 36.9685 56.7194 36.9685C73.8959 36.9685 87.7977 50.8704 87.7977 68.0468C87.7977 85.2233 73.8959 99.1251 56.7194 99.1251ZM114.201 45.0419C107.919 45.0419 102.812 39.9343 102.812 33.6527C102.812 27.3711 107.919 22.2635 114.201 22.2635C120.482 22.2635 125.59 27.3711 125.59 33.6527C125.59 39.9343 120.482 45.0419 114.201 45.0419Z" fill="#FFEB60"/>
</svg>