<svg width="21" height="20" viewBox="0 0 21 20" fill="none" xmlns="http://www.w3.org/2000/svg">
<path d="M18.5565 19.8831L12.3485 13.675L14.1926 11.8309L20.4006 18.0388L18.5565 19.8831ZM2.84911 19.8831L1.00493 18.0388L8.86421 10.1796L6.42092 7.73627L5.694 8.46319L4.39722 7.15518V9.40102L3.6703 10.1279L0.376709 6.83435L1.10363 6.10743H3.34946L2.05942 4.82862L5.39332 1.49469C5.72238 1.16563 6.07873 0.924824 6.46239 0.772263C6.84603 0.619702 7.24501 0.543421 7.65933 0.543421C8.07364 0.543421 8.47262 0.619702 8.85628 0.772263C9.23991 0.924824 9.59626 1.16563 9.92532 1.49469L7.62343 3.79658L8.99202 5.16517L8.2651 5.89209L10.7084 8.33538L13.6363 5.40749C13.5062 5.17116 13.4112 4.92698 13.3514 4.67494C13.2915 4.42292 13.2616 4.1578 13.2616 3.87959C13.2616 2.82959 13.6236 1.94262 14.3475 1.21869C15.0714 0.494771 15.9584 0.132812 17.0084 0.132812C17.2552 0.132812 17.4911 0.154503 17.7162 0.197883C17.9413 0.241245 18.1676 0.313782 18.3949 0.415496L15.743 3.06742L17.8206 5.14496L20.4725 2.49307C20.5861 2.72041 20.6617 2.94664 20.6991 3.17175C20.7365 3.39685 20.7552 3.6328 20.7552 3.87959C20.7552 4.92957 20.3932 5.81653 19.6693 6.54047C18.9453 7.26438 18.0584 7.62634 17.0084 7.62634C16.7302 7.62634 16.4651 7.59942 16.213 7.54558C15.961 7.49174 15.7168 7.39377 15.4805 7.25167L2.84911 19.8831Z" fill="#ADA2CC"/>
</svg>