<svg width="24" height="22" viewBox="0 0 24 22" fill="none" xmlns="http://www.w3.org/2000/svg">
<path d="M0.759766 21.0065V0.589844H11.843V5.25651H23.2405V21.0065H0.759766ZM2.50971 19.2565H5.4264V16.3398H2.50971V19.2565ZM2.50971 14.5898H5.4264V11.6731H2.50971V14.5898ZM2.50971 9.92318H5.4264V7.00648H2.50971V9.92318ZM2.50971 5.25651H5.4264V2.33981H2.50971V5.25651ZM7.17637 19.2565H10.0931V16.3398H7.17637V19.2565ZM7.17637 14.5898H10.0931V11.6731H7.17637V14.5898ZM7.17637 9.92318H10.0931V7.00648H7.17637V9.92318ZM7.17637 5.25651H10.0931V2.33981H7.17637V5.25651ZM11.843 19.2565H21.4905V7.00648H11.843V9.92318H14.4008V11.6731H11.843V14.5898H14.4008V16.3398H11.843V19.2565ZM16.9585 11.6731V9.92318H18.7084V11.6731H16.9585ZM16.9585 16.3398V14.5898H18.7084V16.3398H16.9585Z" fill="#ADA2CC"/>
</svg>