<svg width="52" height="61" viewBox="0 0 52 61" fill="none" xmlns="http://www.w3.org/2000/svg">
<path fill-rule="evenodd" clip-rule="evenodd" d="M12.2305 57.512C12.2305 58.9677 13.4115 60.1487 14.8672 60.1487H48.6172C50.0729 60.1487 51.2539 58.9677 51.2539 57.512V18.8939C51.2539 18.4084 50.8604 18.015 50.375 18.015C49.8896 18.015 49.4961 18.4084 49.4961 18.8939V57.512C49.4961 57.9969 49.1021 58.3909 48.6172 58.3909H14.8672C14.3823 58.3909 13.9883 57.9969 13.9883 57.512V55.1682H14.7454C15.2308 55.1682 15.6243 54.7747 15.6243 54.2893C15.6243 53.8039 15.2308 53.4104 14.7454 53.4104H13.1094H9.12506C8.64015 53.4104 8.24615 53.0164 8.24615 52.5315V50.1877H37.1328C38.589 50.1877 39.7695 49.0072 39.7695 47.551V6.88696H42.875C43.3599 6.88696 43.7539 7.28094 43.7539 7.76587V52.5315C43.7539 53.0164 43.3599 53.4104 42.875 53.4104H18.4844C17.999 53.4104 17.6055 53.8039 17.6055 54.2893C17.6055 54.7747 17.999 55.1682 18.4844 55.1682H42.875C44.3307 55.1682 45.5117 53.9872 45.5117 52.5315V11.8674H48.6171C49.1021 11.8674 49.496 12.2614 49.496 12.7463V15.0976C49.496 15.583 49.8895 15.9765 50.3749 15.9765C50.8604 15.9765 51.2538 15.583 51.2538 15.0976V12.7463C51.2538 11.2906 50.073 10.1096 48.6171 10.1096H45.5117V7.76587C45.5117 6.31018 44.3307 5.12915 42.875 5.12915H39.7695V2.7854C39.7695 1.32922 38.589 0.148682 37.1328 0.148682H3.38281C1.92662 0.148682 0.746094 1.32922 0.746094 2.7854V3.83942C0.746094 4.32477 1.1396 4.71832 1.625 4.71832C2.1104 4.71832 2.50391 4.32477 2.50391 3.83942V2.7854C2.50391 2.30005 2.89744 1.90649 3.38281 1.90649H37.1328C37.6182 1.90649 38.0117 2.30005 38.0117 2.7854V47.551C38.0117 48.0364 37.6182 48.4299 37.1328 48.4299H7.36724H3.38281C2.89744 48.4299 2.50391 48.0364 2.50391 47.551V7.54578C2.50391 7.06036 2.1104 6.66687 1.625 6.66687C1.1396 6.66687 0.746094 7.06036 0.746094 7.54578V47.551C0.746094 49.0072 1.92662 50.1877 3.38281 50.1877H6.48834V52.5315C6.48834 53.9872 7.66934 55.1682 9.12506 55.1682H12.2305V57.512ZM12.2011 21.5277L16.4484 16.2421L20.6951 21.5271H20.0996C20.0886 21.5271 20.0775 21.5273 20.0666 21.5277H12.2011ZM21.3145 19.4916L17.5039 14.7495C17.2688 14.457 16.9039 14.2186 16.4484 14.2186C15.9928 14.2186 15.6279 14.457 15.3928 14.7495L9.94612 21.5277H8.93095C8.44555 21.5277 8.05204 21.9212 8.05204 22.4066C8.05204 22.892 8.44555 23.2855 8.93095 23.2855H10.3674H22.5293H31.83C32.3154 23.2855 32.7089 22.892 32.7089 22.4066C32.7089 21.9212 32.3154 21.5277 31.83 21.5277H31.1596L26.4739 15.6971C26.2385 15.4044 25.8735 15.1669 25.4188 15.1669C24.964 15.1669 24.599 15.4044 24.3636 15.6971L21.3145 19.4916ZM22.442 20.8948L22.9501 21.5271H28.904L25.4188 17.1902L22.442 20.8948ZM5.14062 30.5002C4.65522 30.5002 4.26172 30.1068 4.26172 29.6213V4.54321C4.26172 4.0578 4.65522 3.66431 5.14062 3.66431H35.375C35.8604 3.66431 36.2539 4.0578 36.2539 4.54321V29.6213C36.2539 30.1068 35.8604 30.5002 35.375 30.5002H5.14062ZM6.01953 5.42212V28.7424H34.4961V5.42212H6.01953ZM26 13.9182C24.3496 13.9182 23.0117 12.5803 23.0117 10.9299C23.0117 9.27954 24.3496 7.94165 26 7.94165C27.6504 7.94165 28.9883 9.27954 28.9883 10.9299C28.9883 12.5803 27.6504 13.9182 26 13.9182ZM24.7695 10.9299C24.7695 11.6095 25.3205 12.1604 26 12.1604C26.6796 12.1604 27.2305 11.6095 27.2305 10.9299C27.2305 10.2504 26.6796 9.69946 26 9.69946C25.3205 9.69946 24.7695 10.2504 24.7695 10.9299ZM4.96489 40.0076C4.96489 40.7435 5.56147 41.3401 6.29742 41.3401H10.7807C11.5163 41.3401 12.1133 40.7438 12.1133 40.0076V35.5242C12.1133 34.788 11.5163 34.1917 10.7807 34.1917H6.29742C5.56147 34.1917 4.96489 34.7882 4.96489 35.5242V40.0076ZM6.7227 39.5823V35.9495H10.3555V39.5823H6.7227ZM14.9844 36.8577C14.499 36.8577 14.1055 36.4642 14.1055 35.9788C14.1055 35.4933 14.499 35.0999 14.9844 35.0999H35.375C35.8604 35.0999 36.2539 35.4933 36.2539 35.9788C36.2539 36.4642 35.8604 36.8577 35.375 36.8577H14.9844ZM14.1055 39.553C14.1055 40.0384 14.499 40.4319 14.9844 40.4319H35.375C35.8604 40.4319 36.2539 40.0384 36.2539 39.553C36.2539 39.0676 35.8604 38.6741 35.375 38.6741H14.9844C14.499 38.6741 14.1055 39.0676 14.1055 39.553Z" fill="white"/>
</svg>
