<svg width="22" height="23" viewBox="0 0 22 23" fill="none" xmlns="http://www.w3.org/2000/svg">
<path d="M7.58985 14.1541H18.4936L14.8725 9.39775L12.0994 12.9426L10.2687 10.6766L7.58985 14.1541ZM6.40075 18.4169C5.81143 18.4169 5.31261 18.2128 4.9043 17.8044C4.49597 17.3961 4.2918 16.8973 4.2918 16.3079V3.02597C4.2918 2.43665 4.49597 1.93783 4.9043 1.52949C5.31261 1.12116 5.81143 0.916992 6.40075 0.916992H19.6828C20.2721 0.916992 20.7709 1.12116 21.1792 1.52949C21.5875 1.93783 21.7917 2.43665 21.7917 3.02597V16.3079C21.7917 16.8973 21.5875 17.3961 21.1792 17.8044C20.7709 18.2128 20.2721 18.4169 19.6828 18.4169H6.40075ZM6.40075 16.667H19.6828C19.7725 16.667 19.8548 16.6296 19.9296 16.5548C20.0044 16.48 20.0417 16.3977 20.0417 16.3079V3.02597C20.0417 2.93622 20.0044 2.85394 19.9296 2.77914C19.8548 2.70435 19.7725 2.66696 19.6828 2.66696H6.40075C6.311 2.66696 6.22873 2.70435 6.15395 2.77914C6.07914 2.85394 6.04174 2.93622 6.04174 3.02597V16.3079C6.04174 16.3977 6.07914 16.48 6.15395 16.5548C6.22873 16.6296 6.311 16.667 6.40075 16.667ZM2.31745 22.5002C1.72815 22.5002 1.22933 22.296 0.820996 21.8877C0.412663 21.4794 0.208496 20.9806 0.208496 20.3913V5.35931H1.95847V20.3913C1.95847 20.481 1.99586 20.5633 2.07064 20.6381C2.14544 20.7129 2.22771 20.7503 2.31745 20.7503H17.3494V22.5002H2.31745Z" fill="#ADA2CC"/>
</svg>